<?xml version="1.0" encoding="utf-8"?>
<!-- Generator: Adobe Illustrator 25.0.1, SVG Export Plug-In . SVG Version: 6.00 Build 0)  -->
<svg version="1.1" id="Camada_1" xmlns="http://www.w3.org/2000/svg" xmlns:xlink="http://www.w3.org/1999/xlink" x="0px" y="0px"
	 viewBox="0 0 260.5 260.5" style="enable-background:new 0 0 260.5 260.5;" xml:space="preserve">
<style type="text/css">
	.st0{fill:#312782;}
	.st1{fill:#E64889;}
	.st2{fill:#71124A;}
	.st3{fill:#FFFFFF;}
</style>
<path class="st0" d="M142.8,260.5H89.3l-13.8-99.6l-8.3-29.6L35.7,81.7l-8.8-11.4l51.8,7.5l3.5-56.5l44,27.2c0,0,3.9,1,4.9,0.8
	s86.4-19.9,86.4-19.9S219,27,221,31c2.1,4,13.8,12.5,15.1,18.8c1,5.1-8.1,30.4-8.1,30.4s-7.7,15.1-9.6,18.7
	c-1.3,2.4-21,36.8-32.7,57.1c-5.4,9.3-5.6,21.6-5.2,23.6c3.3,18.8,5.5,25.6,10.4,37.4c1.8,4.4,19.9,43.5,19.9,43.5H142.8z"/>
<polygon class="st1" points="83.8,260.5 65.7,133.1 15.9,62.9 76.5,73.7 78.5,13.4 129.3,45.1 247.3,17.9 219,109.6 183.4,169.5 
	197.3,227.1 213.2,260.2 "/>
<path class="st1" d="M142.8,260.5H89.3l-13.8-99.6l-8.3-29.6L35.7,81.7l-8.8-11.4l51.8,7.5l3.5-56.5l44,27.2c0,0,3.9,1,4.9,0.8
	s86.4-19.9,86.4-19.9s2-2,3.5,1.6c1.8,4.1,8.7,14.4,15.1,18.8c4.3,3-8.1,30.4-8.1,30.4s-7.7,15.1-9.6,18.7
	c-1.3,2.4-21,36.8-32.7,57.1c-5.4,9.3-5.6,21.6-5.2,23.6c3.3,18.8,5.5,25.6,10.4,37.4c1.8,4.4,19.9,43.5,19.9,43.5H142.8z"/>
<polygon class="st2" points="237.1,46.7 243.1,23.6 222.5,28.3 "/>
<path class="st3" d="M89.4,260.5h-8.1c-0.5-3.8-1.4-17.1-1.9-20.7c-2.5-17.6-4.9-35.2-7.4-52.9c-1.4-9.8-3-19.5-4.2-29.3
	c-1.3-10.9-5.2-20.7-10.4-30.2C45,105.1,29.7,84.7,13.2,65.2c-1.1-1.3-2.3-2.7-3.4-4c-0.1-0.1,0-0.2-0.1-0.6l62.3,9
	c1.3-20.2,2.6-40.3,3.9-60.8c0.9,0.5,1.5,0.9,2.1,1.2c16.8,10.3,33.5,20.6,50.2,31c1.1,0.7,2.4,1,3.7,0.6
	c39.8-9.2,79.7-18.4,119.5-27.5c0.3-0.1,0.7-0.1,1.4-0.2c-0.7,3.1-1.4,6.1-2.1,9c-5.2,21.1-10.7,42-18.1,62.3
	c-2.6,7.2-5.9,14.1-9.7,20.7c-10.3,17.7-20.3,35.6-30.6,53.4c-4.2,7.2-4.9,14.9-4.1,23c1.2,10.8,4.7,20.9,9,30.7
	c0.3,0.6,20.7,46.6,21,47.5h-7.3c-0.3-0.4-19.7-43.1-19.9-43.5c-5.5-11.9-9.6-24.2-10.4-37.4c-0.5-8.4,0.9-16.3,5.2-23.6
	c11-19,21.9-38,32.7-57.1c5.1-9,8.4-18.8,11.5-28.6c2.2-6.8,4.1-13.7,6.2-20.5c-7.9-4.1-11.4-11.6-15.1-18.8
	c-0.9-1.7-1.7-2.1-3.5-1.6C188.8,36,160,42.7,131.2,49.3c-1.7,0.5-3.5,0.2-4.9-0.8c-13.9-8.7-27.8-17.3-41.8-25.9
	c-0.6-0.4-1.2-0.7-2.2-1.3c-1.2,18.8-2.4,37.5-3.5,56.5L27,70.3c3.1,4,6,7.6,8.8,11.4c11.8,15.7,23,31.8,31.5,49.6
	c4.5,9.4,6.9,19.3,8.3,29.6c2.3,17.2,5,34.4,7.4,51.6c1.7,12.1,3.3,24.1,4.9,36.2C88,249,89.4,260,89.4,260.5z M243.1,23.6
	l-18.3,4.2c3.6,6.3,6.4,12.8,12.7,17.3C239.4,37.8,241.2,30.9,243.1,23.6z"/>
<path class="st3" d="M149.3,64.3c-0.1-1.5-0.3-2.9-0.4-4.5c1.7-0.3,3.3-0.5,4.9-0.9c2.5-0.6,5-1.4,7.3-2.4c3.4-1.6,3.8-3.8,1.9-7
	c-0.2-0.3-0.4-0.7-0.8-1.2l3.5-2.9c3.9,3.1,4.4,8.8,1.3,12.7c-0.6,0.7-1.3,1.4-2.1,1.9C161.4,62.4,154.1,64.5,149.3,64.3z"/>
<path class="st3" d="M119.3,90.5l8.8-2.1c0.3-0.1,0.5-0.1,0.8-0.2c5.9-2.1,6.7-4,3.7-9.4l3.3-2.8c4.5,3.3,4.4,10.4-0.2,14
	c-3.8,2.9-8.2,4-12.9,4.7c-1,0.2-2,0.2-3.3,0.3L119.3,90.5z"/>
<path class="st3" d="M142,126.4l3.9-2c5,6.2,8.4,7.3,15.3,4.7l2.1,3.9C156.6,137.8,146,134.6,142,126.4z"/>
<path class="st3" d="M106.5,72.6l3.7,3l-9.8,11.9l-3.7-3.1C100,80.5,103.2,76.6,106.5,72.6z"/>
</svg>
