<svg xmlns="http://www.w3.org/2000/svg" id="Camada_1" data-name="Camada 1" viewBox="0 0 260.5 260.5"><defs><style>.cls-1{fill:#312782}.cls-2{fill:#1d1d1b}.cls-3{fill:#e64889}.cls-4{fill:#71124a}.cls-5{fill:#fff}</style></defs><path d="M142.82,260.5H89.35l-13.8-99.6-8.3-29.6L35.75,81.7,27,70.3l51.8,7.5,3.5-56.5,44,27.2s3.93,1,4.9.8l86.4-19.9S219,27,221.05,31s13.85,12.55,15.1,18.8c1,5.14-8.07,30.41-8.07,30.41s-7.7,15.09-9.63,18.69c-1.29,2.4-21,36.79-32.7,57.1-5.35,9.28-5.55,21.62-5.2,23.6,3.34,18.84,5.54,25.64,10.4,37.4,1.83,4.43,19.9,43.5,19.9,43.5Z" class="cls-1"/><g id="Camada_1-2" data-name="Camada 1-2"><rect width="260.5" height="260.5" class="cls-2"/><polygon points="83.84 260.5 65.65 133.1 15.88 62.87 76.52 73.74 78.54 13.36 129.26 45.1 247.29 17.91 219 109.61 183.38 169.48 197.27 227.08 213.19 260.18 83.84 260.5" class="cls-3"/><path d="M142.82,260.5H89.35l-13.8-99.6-8.3-29.6L35.75,81.7,27,70.3l51.8,7.5,3.5-56.5,44,27.2s3.93,1,4.9.8l86.4-19.9s2-2,3.5,1.6c1.76,4.13,8.69,14.4,15.1,18.8,4.32,3-8.07,30.41-8.07,30.41s-7.7,15.09-9.63,18.69c-1.29,2.4-21,36.79-32.7,57.1-5.35,9.28-5.55,21.62-5.2,23.6,3.34,18.84,5.54,25.64,10.4,37.4,1.83,4.43,19.9,43.5,19.9,43.5Z" class="cls-3"/><polygon points="237.08 46.71 243.1 23.6 222.47 28.34 237.08 46.71" class="cls-4"/><path d="M89.4,260.5H81.3c-.5-3.8-1.4-17.1-1.9-20.7-2.5-17.6-4.9-35.2-7.4-52.9-1.4-9.8-3-19.5-4.2-29.3-1.3-10.9-5.2-20.7-10.4-30.2C45,105.1,29.7,84.7,13.2,65.2l-3.4-4c-.1-.1,0-.2-.1-.6l62.3,9c1.3-20.2,2.6-40.3,3.9-60.8.9.5,1.5.9,2.1,1.2q25.2,15.45,50.2,31a4.4,4.4,0,0,0,3.7.6q59.7-13.8,119.5-27.5a11.28,11.28,0,0,1,1.4-.2q-1.05,4.65-2.1,9c-5.2,21.1-10.7,42-18.1,62.3a130.13,130.13,0,0,1-9.7,20.7c-10.3,17.7-20.3,35.6-30.6,53.4-4.2,7.2-4.9,14.9-4.1,23,1.2,10.8,4.7,20.9,9,30.7.3.6,20.7,46.6,21,47.5h-7.3c-.3-.4-19.7-43.1-19.9-43.5-5.5-11.9-9.6-24.2-10.4-37.4-.5-8.4.9-16.3,5.2-23.6q16.5-28.5,32.7-57.1c5.1-9,8.4-18.8,11.5-28.6,2.2-6.8,4.1-13.7,6.2-20.5-7.9-4.1-11.4-11.6-15.1-18.8-.9-1.7-1.7-2.1-3.5-1.6C188.8,36,160,42.7,131.2,49.3a5.66,5.66,0,0,1-4.9-.8Q105.45,35.45,84.5,22.6c-.6-.4-1.2-.7-2.2-1.3-1.2,18.8-2.4,37.5-3.5,56.5L27,70.3c3.1,4,6,7.6,8.8,11.4,11.8,15.7,23,31.8,31.5,49.6,4.5,9.4,6.9,19.3,8.3,29.6,2.3,17.2,5,34.4,7.4,51.6,1.7,12.1,3.3,24.1,4.9,36.2C88,249,89.4,260,89.4,260.5ZM243.1,23.6l-18.3,4.2c3.6,6.3,6.4,12.8,12.7,17.3Z" class="cls-5"/><path d="M149.55,76c-.16-2.43-.49-4.69-.65-7.28,2.75-.49,5.34-.81,7.93-1.46a71.93,71.93,0,0,0,11.81-3.88c5.5-2.59,6.15-6.15,3.07-11.33a19.24,19.24,0,0,0-1.29-1.94l5.66-4.69A14.61,14.61,0,0,1,178.18,66,15.51,15.51,0,0,1,174.79,69C169.12,72.9,157.31,76.3,149.55,76Z" class="cls-5"/><path d="M119.3,95.87,131.36,93c.41-.14.68-.14,1.09-.27,8.09-2.88,9.18-5.49,5.07-12.88L142,76c6.17,4.52,6,14.25-.27,19.18-5.21,4-11.24,5.48-17.67,6.44a41.06,41.06,0,0,1-4.53.41Z" class="cls-5"/><path d="M142,127.57l6.19-3.17c7.93,9.84,13.33,11.58,24.28,7.46l3.33,6.19C165.17,145.66,148.35,140.59,142,127.57Z" class="cls-5"/><path d="M113.21,72.6l6.23,5.05-16.51,20L96.7,92.48C102.26,85.91,107.65,79.34,113.21,72.6Z" class="cls-5"/></g></svg>